<svg xmlns="http://www.w3.org/2000/svg" width="500" height="500" fill="none">
  <style>
    @media (prefers-color-scheme: dark) {
      #background {
        fill: #101820;
      }
      #foreground {
        fill: #fee715;
      }
    }
  </style>
  <path id="background" fill="#E9F4FF" d="M0 0h500v500H0z" />
  <path
    id="foreground"
    fill="#1C275D"
    d="M128.1 121.5c-10.2 0-17.5 1.6-21.9 4.8-4.4 3-6.6 8.2-6.6 15.6v71.7c0 10.2-1.8 17.6-5.4 22.2-3.6 4.4-9.3 7.9-17.1 10.5 8 2.8 13.7 6.3 17.1 10.5 3.6 4.2 5.4 11.4 5.4 21.6v71.7c0 7.4 2.2 12.6 6.6 15.6 4.4 3.2 11.7 4.8 21.9 4.8v21.3c-20 0-34.1-3.5-42.3-10.5-8.2-6.8-12.3-18.2-12.3-34.2v-66.6c0-8.4-1.6-14.3-4.8-17.7-3-3.4-8.4-5.1-16.2-5.1v-22.8c7.8 0 13.2-1.8 16.2-5.4 3.2-3.6 4.8-9.6 4.8-18v-66.6c0-16 4.1-27.4 12.3-34.2 8.2-7 22.3-10.5 42.3-10.5v21.3Zm49.28 191.4c6 0 11 2 15 6s6 8.9 6 14.7c0 5.8-2 10.8-6 15-4 4-9 6-15 6-5.8 0-10.7-2-14.7-6-4-4.2-6-9.2-6-15 0-5.8 2-10.7 6-14.7s8.9-6 14.7-6Zm72.07 0c6 0 11 2 15 6s6 8.9 6 14.7c0 5.8-2 10.8-6 15-4 4-9 6-15 6-5.8 0-10.7-2-14.7-6-4-4.2-6-9.2-6-15 0-5.8 2-10.7 6-14.7s8.9-6 14.7-6Zm72.07 0c6 0 11 2 15 6s6 8.9 6 14.7c0 5.8-2 10.8-6 15-4 4-9 6-15 6-5.8 0-10.7-2-14.7-6-4-4.2-6-9.2-6-15 0-5.8 2-10.7 6-14.7s8.9-6 14.7-6Zm49.871-212.7c20 0 34.1 3.5 42.3 10.5 8.2 6.8 12.3 18.2 12.3 34.2v66.6c0 8.4 1.5 14.4 4.5 18 3.2 3.6 8.7 5.4 16.5 5.4v22.8c-7.8 0-13.3 1.7-16.5 5.1-3 3.4-4.5 9.3-4.5 17.7v66.6c0 16-4.1 27.4-12.3 34.2-8.2 7-22.3 10.5-42.3 10.5v-21.3c10.2 0 17.5-1.6 21.9-4.8 4.4-3 6.6-8.2 6.6-15.6v-71.7c0-10.2 1.7-17.4 5.1-21.6 3.6-4.2 9.4-7.7 17.4-10.5-7.8-2.6-13.5-6.1-17.1-10.5-3.6-4.6-5.4-12-5.4-22.2v-71.7c0-7.4-2.2-12.6-6.6-15.6-4.4-3.2-11.7-4.8-21.9-4.8v-21.3Z"
  />
</svg>
